<svg width="561" height="792" viewBox="0 0 561 792" fill="none" xmlns="http://www.w3.org/2000/svg">
<g style="mix-blend-mode:color-dodge" filter="url(#filter0_f_3_3388)">
<path d="M422.706 587.048C531.056 654.835 674.111 621.482 741.874 513.117C809.637 404.752 777.021 261.494 668.671 193.707C560.321 125.92 417.267 159.274 349.504 267.639C281.741 376.003 314.356 519.261 422.706 587.048Z" fill="url(#paint0_radial_3_3388)"/>
</g>
<g style="mix-blend-mode:screen" filter="url(#filter1_f_3_3388)">
<path d="M434.415 652.938C489.768 687.569 562.851 670.529 597.47 615.168C632.088 559.807 615.426 486.62 560.073 451.99C504.719 417.359 431.636 434.399 397.018 489.76C362.399 545.121 379.062 618.308 434.415 652.938Z" fill="url(#paint1_radial_3_3388)"/>
</g>
<g style="mix-blend-mode:color-dodge" filter="url(#filter2_f_3_3388)">
<path d="M473.084 635.371C557.845 688.4 669.756 662.308 722.767 577.535C775.777 492.761 750.262 380.692 665.501 327.662C580.739 274.633 468.828 300.725 415.818 385.498C362.807 470.272 388.322 582.342 473.084 635.371Z" fill="url(#paint2_radial_3_3388)"/>
</g>
<g style="mix-blend-mode:color-dodge" filter="url(#filter3_f_3_3388)">
<path d="M492.6 552.055C561.456 595.133 652.366 573.937 695.429 505.071C738.493 436.206 717.766 345.166 648.91 302.088C580.054 259.009 489.143 280.205 446.08 349.071C403.017 417.936 423.744 508.976 492.6 552.055Z" fill="url(#paint3_radial_3_3388)"/>
</g>
<g style="mix-blend-mode:color-dodge" filter="url(#filter4_f_3_3388)">
<path d="M420.926 498.065C489.943 541.244 580.884 520.29 624.048 451.264C667.211 382.237 646.253 291.277 577.236 248.098L410.201 143.595C341.184 100.416 250.243 121.37 207.079 190.396C163.916 259.423 184.874 350.383 253.891 393.562L420.926 498.065Z" fill="url(#paint4_radial_3_3388)"/>
</g>
<g style="mix-blend-mode:screen" filter="url(#filter5_f_3_3388)">
<path d="M412.45 622.443C497.41 675.597 609.358 649.803 662.492 564.832C715.627 479.86 689.827 367.888 604.868 314.734L399.247 186.092C314.288 132.939 202.34 158.733 149.205 243.704C96.0708 328.676 121.87 440.648 206.83 493.801L412.45 622.443Z" fill="url(#paint5_radial_3_3388)"/>
</g>
<g style="mix-blend-mode:soft-light" filter="url(#filter6_f_3_3388)">
<path d="M566.922 284.841C511.743 316.746 489.812 361.009 485.744 379.152C480.629 416.59 475.944 475.273 498.125 410.504C525.852 329.542 574.254 325.495 670.041 268.024C746.671 222.047 715.974 200.165 691.047 194.971L643.554 207.817C641.002 220.198 622.101 252.935 566.922 284.841Z" fill="url(#paint6_radial_3_3388)"/>
</g>
<g style="mix-blend-mode:soft-light" filter="url(#filter7_f_3_3388)">
<path d="M666.51 313.383C611.331 345.288 589.4 389.551 585.331 407.694C580.216 445.132 575.531 503.815 597.713 439.046C625.44 358.084 673.841 354.037 769.629 296.566C846.258 250.589 815.562 228.707 790.635 223.513L743.142 236.359C740.589 248.74 721.689 281.477 666.51 313.383Z" fill="url(#paint7_radial_3_3388)"/>
</g>
<g style="mix-blend-mode:soft-light" filter="url(#filter8_f_3_3388)">
<path d="M521.285 215.213C466.106 247.119 444.174 291.382 440.106 309.525C434.991 346.962 430.306 405.645 452.488 340.876C480.215 259.915 528.616 255.868 624.404 198.397C701.033 152.42 670.337 130.538 645.41 125.344L597.917 138.19C595.364 150.57 576.464 183.308 521.285 215.213Z" fill="url(#paint8_radial_3_3388)"/>
</g>
<line x1="247" y1="657" x2="247.001" y2="482" stroke="#B6B6B6" stroke-width="2"/>
<line x1="73.0002" y1="656" x2="248" y2="656" stroke="#B6B6B6" stroke-width="2"/>
<defs>
<filter id="filter0_f_3_3388" x="193.537" y="37.9333" width="704.303" height="704.889" filterUnits="userSpaceOnUse" color-interpolation-filters="sRGB">
<feFlood flood-opacity="0" result="BackgroundImageFix"/>
<feBlend mode="normal" in="SourceGraphic" in2="BackgroundImageFix" result="shape"/>
<feGaussianBlur stdDeviation="60.323" result="effect1_foregroundBlur_3_3388"/>
</filter>
<filter id="filter1_f_3_3388" x="258.327" y="313.398" width="477.834" height="478.132" filterUnits="userSpaceOnUse" color-interpolation-filters="sRGB">
<feFlood flood-opacity="0" result="BackgroundImageFix"/>
<feBlend mode="normal" in="SourceGraphic" in2="BackgroundImageFix" result="shape"/>
<feGaussianBlur stdDeviation="60.323" result="effect1_foregroundBlur_3_3388"/>
</filter>
<filter id="filter2_f_3_3388" x="267.541" y="179.536" width="603.503" height="603.961" filterUnits="userSpaceOnUse" color-interpolation-filters="sRGB">
<feFlood flood-opacity="0" result="BackgroundImageFix"/>
<feBlend mode="normal" in="SourceGraphic" in2="BackgroundImageFix" result="shape"/>
<feGaussianBlur stdDeviation="60.323" result="effect1_foregroundBlur_3_3388"/>
</filter>
<filter id="filter3_f_3_3388" x="302.987" y="159.118" width="535.534" height="535.906" filterUnits="userSpaceOnUse" color-interpolation-filters="sRGB">
<feFlood flood-opacity="0" result="BackgroundImageFix"/>
<feBlend mode="normal" in="SourceGraphic" in2="BackgroundImageFix" result="shape"/>
<feGaussianBlur stdDeviation="60.323" result="effect1_foregroundBlur_3_3388"/>
</filter>
<filter id="filter4_f_3_3388" x="63.9868" y="0.490463" width="703.153" height="640.679" filterUnits="userSpaceOnUse" color-interpolation-filters="sRGB">
<feFlood flood-opacity="0" result="BackgroundImageFix"/>
<feBlend mode="normal" in="SourceGraphic" in2="BackgroundImageFix" result="shape"/>
<feGaussianBlur stdDeviation="60.323" result="effect1_foregroundBlur_3_3388"/>
</filter>
<filter id="filter5_f_3_3388" x="0.927475" y="37.7998" width="809.843" height="732.936" filterUnits="userSpaceOnUse" color-interpolation-filters="sRGB">
<feFlood flood-opacity="0" result="BackgroundImageFix"/>
<feBlend mode="normal" in="SourceGraphic" in2="BackgroundImageFix" result="shape"/>
<feGaussianBlur stdDeviation="60.323" result="effect1_foregroundBlur_3_3388"/>
</filter>
<filter id="filter6_f_3_3388" x="429.485" y="142.971" width="341.229" height="348.531" filterUnits="userSpaceOnUse" color-interpolation-filters="sRGB">
<feFlood flood-opacity="0" result="BackgroundImageFix"/>
<feBlend mode="normal" in="SourceGraphic" in2="BackgroundImageFix" result="shape"/>
<feGaussianBlur stdDeviation="26" result="effect1_foregroundBlur_3_3388"/>
</filter>
<filter id="filter7_f_3_3388" x="529.072" y="171.513" width="341.229" height="348.531" filterUnits="userSpaceOnUse" color-interpolation-filters="sRGB">
<feFlood flood-opacity="0" result="BackgroundImageFix"/>
<feBlend mode="normal" in="SourceGraphic" in2="BackgroundImageFix" result="shape"/>
<feGaussianBlur stdDeviation="26" result="effect1_foregroundBlur_3_3388"/>
</filter>
<filter id="filter8_f_3_3388" x="383.847" y="73.3442" width="341.229" height="348.531" filterUnits="userSpaceOnUse" color-interpolation-filters="sRGB">
<feFlood flood-opacity="0" result="BackgroundImageFix"/>
<feBlend mode="normal" in="SourceGraphic" in2="BackgroundImageFix" result="shape"/>
<feGaussianBlur stdDeviation="26" result="effect1_foregroundBlur_3_3388"/>
</filter>
<radialGradient id="paint0_radial_3_3388" cx="0" cy="0" r="1" gradientUnits="userSpaceOnUse" gradientTransform="translate(672.742 382.313) rotate(164.748) scale(215.169 215.661)">
<stop stop-color="#5DAAAE"/>
<stop offset="1" stop-color="#484EB7" stop-opacity="0"/>
<stop offset="1" stop-color="#9FA7FF" stop-opacity="0"/>
</radialGradient>
<radialGradient id="paint1_radial_3_3388" cx="0" cy="0" r="1" gradientUnits="userSpaceOnUse" gradientTransform="translate(458.29 583.494) rotate(-123.172) scale(111.984 112.217)">
<stop stop-color="#DD580B"/>
<stop offset="1" stop-color="#FFAA79"/>
</radialGradient>
<radialGradient id="paint2_radial_3_3388" cx="0" cy="0" r="1" gradientUnits="userSpaceOnUse" gradientTransform="translate(668.685 475.208) rotate(164.748) scale(168.326 168.71)">
<stop stop-color="#F257A0"/>
<stop offset="1" stop-color="#484EB7" stop-opacity="0"/>
<stop offset="1" stop-color="#D03F92" stop-opacity="0"/>
</radialGradient>
<radialGradient id="paint3_radial_3_3388" cx="0" cy="0" r="1" gradientUnits="userSpaceOnUse" gradientTransform="translate(651.496 421.946) rotate(164.748) scale(136.739 137.052)">
<stop stop-color="#E18550"/>
<stop offset="1" stop-color="#484EB7" stop-opacity="0"/>
<stop offset="1" stop-color="#AD427F" stop-opacity="0"/>
</radialGradient>
<radialGradient id="paint4_radial_3_3388" cx="0" cy="0" r="1" gradientUnits="userSpaceOnUse" gradientTransform="translate(533.77 339.144) rotate(179.104) scale(184.821 169.559)">
<stop stop-color="#FFD7EA"/>
<stop offset="1" stop-color="#484EB7" stop-opacity="0"/>
<stop offset="1" stop-color="#D03F92" stop-opacity="0"/>
</radialGradient>
<radialGradient id="paint5_radial_3_3388" cx="0" cy="0" r="1" gradientUnits="userSpaceOnUse" gradientTransform="translate(551.361 426.813) rotate(179.104) scale(227.515 208.726)">
<stop stop-color="#CF540D"/>
<stop offset="0.0001" stop-color="#CC540E"/>
<stop offset="0.778467" stop-color="#8E4317"/>
<stop offset="1" stop-color="#484EB7" stop-opacity="0"/>
<stop offset="1" stop-color="#A84A13"/>
</radialGradient>
<radialGradient id="paint6_radial_3_3388" cx="0" cy="0" r="1" gradientUnits="userSpaceOnUse" gradientTransform="translate(630.857 263.399) rotate(134.353) scale(113.121 99.5178)">
<stop stop-color="#EB5C09"/>
<stop offset="1" stop-color="white" stop-opacity="0.91"/>
</radialGradient>
<radialGradient id="paint7_radial_3_3388" cx="0" cy="0" r="1" gradientUnits="userSpaceOnUse" gradientTransform="translate(730.444 291.941) rotate(134.353) scale(113.121 99.5178)">
<stop stop-color="#EB5C09"/>
<stop offset="1" stop-color="white" stop-opacity="0.91"/>
</radialGradient>
<radialGradient id="paint8_radial_3_3388" cx="0" cy="0" r="1" gradientUnits="userSpaceOnUse" gradientTransform="translate(585.219 193.772) rotate(134.353) scale(113.121 99.5178)">
<stop stop-color="#EB5C09"/>
<stop offset="1" stop-color="white" stop-opacity="0.91"/>
</radialGradient>
</defs>
</svg>
