<svg width="798" height="1062" viewBox="0 0 798 1062" fill="none" xmlns="http://www.w3.org/2000/svg">
<g style="mix-blend-mode:color-dodge" filter="url(#filter0_f_3_3376)">
<path d="M156.223 855.525C43.249 926.204 -105.612 891.906 -176.266 778.916L-262.182 641.522C-332.837 528.533 -298.53 379.639 -185.556 308.96L-49.4561 223.811C63.5178 153.131 212.378 187.43 283.033 300.42L368.949 437.813C439.604 550.803 405.297 699.696 292.323 770.376L156.223 855.525Z" fill="url(#paint0_radial_3_3376)"/>
</g>
<g style="mix-blend-mode:screen" filter="url(#filter1_f_3_3376)">
<path d="M208.003 904.507C131.087 952.628 29.5352 928.951 -18.5687 852.024C-66.6726 775.098 -43.5194 673.401 33.3965 625.28C110.312 577.159 211.865 600.837 259.968 677.763C308.072 754.69 284.919 856.386 208.003 904.507Z" fill="url(#paint1_radial_3_3376)"/>
</g>
<g style="mix-blend-mode:color-dodge" filter="url(#filter2_f_3_3376)">
<path d="M145.569 885.541C32.5953 956.221 -116.265 921.922 -186.92 808.933L-198.428 790.529C-269.083 677.539 -234.777 528.646 -121.803 457.966L-104.398 447.077C8.57544 376.398 157.436 410.697 228.091 523.686L239.599 542.09C310.254 655.079 275.948 803.973 162.974 874.652L145.569 885.541Z" fill="url(#paint2_radial_3_3376)"/>
</g>
<g style="mix-blend-mode:color-dodge" filter="url(#filter3_f_3_3376)">
<path d="M127.153 764.325C31.4748 824.184 -94.8495 794.731 -154.688 699.04C-214.526 603.348 -185.725 476.844 -90.0463 416.985C5.63215 357.125 131.957 386.578 191.795 482.27C251.633 577.962 222.832 704.466 127.153 764.325Z" fill="url(#paint3_radial_3_3376)"/>
</g>
<g style="mix-blend-mode:color-dodge" filter="url(#filter4_f_3_3376)">
<path d="M226.746 689.303C130.844 749.303 4.4778 720.187 -55.5002 624.272C-115.478 528.356 -86.356 401.962 9.54608 341.963L241.649 196.753C337.551 136.754 463.917 165.869 523.895 261.785C583.873 357.7 554.751 484.094 458.849 544.093L226.746 689.303Z" fill="url(#paint4_radial_3_3376)"/>
</g>
<g style="mix-blend-mode:screen" filter="url(#filter5_f_3_3376)">
<path d="M229.323 867.89C116.349 938.569 -32.5117 904.271 -103.167 791.281L-114.675 772.877C-185.33 659.888 -151.023 510.994 -38.0496 440.315L266.071 250.048C379.044 179.368 527.905 213.667 598.56 326.657L610.068 345.06C680.723 458.05 646.417 606.943 533.443 677.623L229.323 867.89Z" fill="url(#paint5_radial_3_3376)"/>
</g>
<g style="mix-blend-mode:soft-light" filter="url(#filter6_f_3_3376)">
<path d="M23.8782 393.019C100.552 437.354 131.026 498.859 136.679 524.069C143.787 576.09 150.297 657.633 119.475 567.634C80.9468 455.134 13.6904 449.51 -119.41 369.652C-225.89 305.765 -183.236 275.359 -148.599 268.142L-82.6053 285.992C-79.0582 303.195 -52.7955 348.685 23.8782 393.019Z" fill="url(#paint6_radial_3_3376)"/>
</g>
<g style="mix-blend-mode:soft-light" filter="url(#filter7_f_3_3376)">
<path d="M-114.503 432.68C-37.8294 477.014 -7.35515 538.519 -1.70222 563.729C5.40549 615.75 11.9154 697.293 -18.9068 607.294C-57.4345 494.794 -124.691 489.171 -257.791 409.312C-364.272 345.425 -321.618 315.019 -286.98 307.802L-220.987 325.652C-217.44 342.855 -191.177 388.345 -114.503 432.68Z" fill="url(#paint7_radial_3_3376)"/>
</g>
<g style="mix-blend-mode:soft-light" filter="url(#filter8_f_3_3376)">
<path d="M87.2935 296.269C163.967 340.604 194.441 402.108 200.094 427.319C207.202 479.34 213.712 560.883 182.89 470.883C144.362 358.384 77.1057 352.76 -55.9947 272.902C-162.475 209.015 -119.821 178.609 -85.1838 171.392L-19.19 189.242C-15.6429 206.445 10.6198 251.935 87.2935 296.269Z" fill="url(#paint8_radial_3_3376)"/>
</g>
<line x1="312" y1="384" x2="312" y2="559" stroke="#B6B6B6" stroke-width="2"/>
<line x1="486" y1="385" x2="311" y2="385" stroke="#B6B6B6" stroke-width="2"/>
<defs>
<filter id="filter0_f_3_3376" x="-419.571" y="66.4026" width="945.908" height="946.531" filterUnits="userSpaceOnUse" color-interpolation-filters="sRGB">
<feFlood flood-opacity="0" result="BackgroundImageFix"/>
<feBlend mode="normal" in="SourceGraphic" in2="BackgroundImageFix" result="shape"/>
<feGaussianBlur stdDeviation="60.323" result="effect1_foregroundBlur_3_3376"/>
</filter>
<filter id="filter1_f_3_3376" x="-164.289" y="479.698" width="569.977" height="570.392" filterUnits="userSpaceOnUse" color-interpolation-filters="sRGB">
<feFlood flood-opacity="0" result="BackgroundImageFix"/>
<feBlend mode="normal" in="SourceGraphic" in2="BackgroundImageFix" result="shape"/>
<feGaussianBlur stdDeviation="60.323" result="effect1_foregroundBlur_3_3376"/>
</filter>
<filter id="filter2_f_3_3376" x="-355.817" y="289.669" width="752.805" height="753.281" filterUnits="userSpaceOnUse" color-interpolation-filters="sRGB">
<feFlood flood-opacity="0" result="BackgroundImageFix"/>
<feBlend mode="normal" in="SourceGraphic" in2="BackgroundImageFix" result="shape"/>
<feGaussianBlur stdDeviation="60.323" result="effect1_foregroundBlur_3_3376"/>
</filter>
<filter id="filter3_f_3_3376" x="-306.524" y="265.319" width="650.155" height="650.671" filterUnits="userSpaceOnUse" color-interpolation-filters="sRGB">
<feFlood flood-opacity="0" result="BackgroundImageFix"/>
<feBlend mode="normal" in="SourceGraphic" in2="BackgroundImageFix" result="shape"/>
<feGaussianBlur stdDeviation="60.323" result="effect1_foregroundBlur_3_3376"/>
</filter>
<filter id="filter4_f_3_3376" x="-207.337" y="44.8994" width="883.069" height="796.257" filterUnits="userSpaceOnUse" color-interpolation-filters="sRGB">
<feFlood flood-opacity="0" result="BackgroundImageFix"/>
<feBlend mode="normal" in="SourceGraphic" in2="BackgroundImageFix" result="shape"/>
<feGaussianBlur stdDeviation="60.323" result="effect1_foregroundBlur_3_3376"/>
</filter>
<filter id="filter5_f_3_3376" x="-272.064" y="92.6394" width="1039.52" height="932.659" filterUnits="userSpaceOnUse" color-interpolation-filters="sRGB">
<feFlood flood-opacity="0" result="BackgroundImageFix"/>
<feBlend mode="normal" in="SourceGraphic" in2="BackgroundImageFix" result="shape"/>
<feGaussianBlur stdDeviation="60.323" result="effect1_foregroundBlur_3_3376"/>
</filter>
<filter id="filter6_f_3_3376" x="-239.042" y="216.142" width="433.64" height="443.786" filterUnits="userSpaceOnUse" color-interpolation-filters="sRGB">
<feFlood flood-opacity="0" result="BackgroundImageFix"/>
<feBlend mode="normal" in="SourceGraphic" in2="BackgroundImageFix" result="shape"/>
<feGaussianBlur stdDeviation="26" result="effect1_foregroundBlur_3_3376"/>
</filter>
<filter id="filter7_f_3_3376" x="-377.423" y="255.802" width="433.64" height="443.786" filterUnits="userSpaceOnUse" color-interpolation-filters="sRGB">
<feFlood flood-opacity="0" result="BackgroundImageFix"/>
<feBlend mode="normal" in="SourceGraphic" in2="BackgroundImageFix" result="shape"/>
<feGaussianBlur stdDeviation="26" result="effect1_foregroundBlur_3_3376"/>
</filter>
<filter id="filter8_f_3_3376" x="-175.627" y="119.392" width="433.64" height="443.786" filterUnits="userSpaceOnUse" color-interpolation-filters="sRGB">
<feFlood flood-opacity="0" result="BackgroundImageFix"/>
<feBlend mode="normal" in="SourceGraphic" in2="BackgroundImageFix" result="shape"/>
<feGaussianBlur stdDeviation="26" result="effect1_foregroundBlur_3_3376"/>
</filter>
<radialGradient id="paint0_radial_3_3376" cx="0" cy="0" r="1" gradientUnits="userSpaceOnUse" gradientTransform="translate(-123.162 528.462) rotate(15.2517) scale(298.987 299.67)">
<stop stop-color="#5DAAAE"/>
<stop offset="1" stop-color="#484EB7" stop-opacity="0"/>
<stop offset="1" stop-color="#9FA7FF" stop-opacity="0"/>
</radialGradient>
<radialGradient id="paint1_radial_3_3376" cx="0" cy="0" r="1" gradientUnits="userSpaceOnUse" gradientTransform="translate(174.828 808.011) rotate(-56.8279) scale(155.606 155.93)">
<stop stop-color="#DD580B"/>
<stop offset="1" stop-color="#FFAA79"/>
</radialGradient>
<radialGradient id="paint2_radial_3_3376" cx="0" cy="0" r="1" gradientUnits="userSpaceOnUse" gradientTransform="translate(-117.526 657.543) rotate(15.2517) scale(233.896 234.43)">
<stop stop-color="#F257A0"/>
<stop offset="1" stop-color="#484EB7" stop-opacity="0"/>
<stop offset="1" stop-color="#D03F92" stop-opacity="0"/>
</radialGradient>
<radialGradient id="paint3_radial_3_3376" cx="0" cy="0" r="1" gradientUnits="userSpaceOnUse" gradientTransform="translate(-93.6407 583.534) rotate(15.2517) scale(190.005 190.439)">
<stop stop-color="#E18550"/>
<stop offset="1" stop-color="#484EB7" stop-opacity="0"/>
<stop offset="1" stop-color="#AD427F" stop-opacity="0"/>
</radialGradient>
<radialGradient id="paint4_radial_3_3376" cx="0" cy="0" r="1" gradientUnits="userSpaceOnUse" gradientTransform="translate(69.944 468.477) rotate(0.896039) scale(256.818 235.609)">
<stop stop-color="#FFD7EA"/>
<stop offset="1" stop-color="#484EB7" stop-opacity="0"/>
<stop offset="1" stop-color="#D03F92" stop-opacity="0"/>
</radialGradient>
<radialGradient id="paint5_radial_3_3376" cx="0" cy="0" r="1" gradientUnits="userSpaceOnUse" gradientTransform="translate(45.5008 590.296) rotate(0.896036) scale(316.142 290.034)">
<stop stop-color="#CF540D"/>
<stop offset="0.0001" stop-color="#CC540E"/>
<stop offset="0.778467" stop-color="#8E4317"/>
<stop offset="1" stop-color="#484EB7" stop-opacity="0"/>
<stop offset="1" stop-color="#A84A13"/>
</radialGradient>
<radialGradient id="paint6_radial_3_3376" cx="0" cy="0" r="1" gradientUnits="userSpaceOnUse" gradientTransform="translate(-64.9613 363.226) rotate(45.6466) scale(157.187 138.284)">
<stop stop-color="#EB5C09"/>
<stop offset="1" stop-color="white" stop-opacity="0.91"/>
</radialGradient>
<radialGradient id="paint7_radial_3_3376" cx="0" cy="0" r="1" gradientUnits="userSpaceOnUse" gradientTransform="translate(-203.343 402.886) rotate(45.6466) scale(157.186 138.284)">
<stop stop-color="#EB5C09"/>
<stop offset="1" stop-color="white" stop-opacity="0.91"/>
</radialGradient>
<radialGradient id="paint8_radial_3_3376" cx="0" cy="0" r="1" gradientUnits="userSpaceOnUse" gradientTransform="translate(-1.54604 266.475) rotate(45.6466) scale(157.187 138.284)">
<stop stop-color="#EB5C09"/>
<stop offset="1" stop-color="white" stop-opacity="0.91"/>
</radialGradient>
</defs>
</svg>
