<?xml version="1.0" encoding="UTF-8"?>
<svg width="80px" height="80px" viewBox="0 0 80 80" version="1.1" xmlns="http://www.w3.org/2000/svg" xmlns:xlink="http://www.w3.org/1999/xlink">
    <title>AlphaLogo_Transparant</title>
    <defs>
        <path d="M45.2668354,47.7508861 L57.06001,76.1899186 C51.8853567,78.6335413 46.1022551,80 40,80 C30.2969603,80 21.4008481,76.5451324 14.4746989,70.7984325 L43.7429985,48.1741345 L43.8997632,48.0643865 C44.222407,47.8605202 44.5973483,47.751248 44.9815965,47.751248 L44.9815965,47.751248 L45.2668354,47.7508861 Z M54.0364557,47.7508861 L79.2494757,47.7514942 C77.3179245,57.5879193 71.7808389,66.1315335 64.0713245,71.9492315 L54.0364557,47.7508861 Z M40,0 C62.09139,0 80,17.90861 80,40 L79.997,39.649 L50.6774684,39.6496203 L38.6939034,10.7508254 L38.6029526,10.5443792 C37.462887,8.10316512 34.5905672,6.97103568 32.0772939,8.01325131 C30.8923355,8.50463525 29.9380621,9.42747569 29.4072796,10.5953175 L29.4072796,10.5953175 L6.26764305,61.5064595 C2.29976115,55.2958712 0,47.9165046 0,40 C0,17.90861 17.90861,0 40,0 Z M33.8886076,20.3129114 L42.083038,40.0729114 L41.6708677,40.2064681 C40.6388318,40.5634951 39.6643759,41.0874888 38.7886066,41.7644146 L38.7886066,41.7644146 L16.2055696,59.2192405 L33.8886076,20.3129114 Z" id="path-1"></path>
    </defs>
    <g id="Logo" stroke="none" stroke-width="1" fill="none" fill-rule="evenodd">
        <g id="Artboard" transform="translate(-375.000000, -730.000000)">
            <g id="AlphaLogo_Transparant" transform="translate(375.000000, 730.000000)">
                <mask id="mask-2" fill="white">
                    <use xlink:href="#path-1"></use>
                </mask>
                <use id="Combined-Shape" fill="#EB5C09" xlink:href="#path-1"></use>
                <path d="M59.4451054,37.6275248 L45.5149763,37.6275248 C42.0651913,37.6275248 38.7032953,38.7156397 35.9077493,40.7370104 L35.9077493,40.7370104 L35.9077493,40.7370104" id="Line-3" stroke="#EB5C09" stroke-width="4" stroke-linecap="square"></path>
                <line x1="74.3388425" y1="49.7764917" x2="44.98376" y2="49.7764917" id="Line-3-Copy" stroke="#EB5C09" stroke-width="4" stroke-linecap="round"></line>
            </g>
        </g>
    </g>
</svg>