<?xml version="1.0" encoding="UTF-8"?>
<svg width="232px" height="81px" viewBox="0 0 232 81" version="1.1" xmlns="http://www.w3.org/2000/svg" xmlns:xlink="http://www.w3.org/1999/xlink">
    <title>AlphaSeekLogo_Black_Transparant</title>
    <defs>
        <path d="M45.2668354,47.7508861 L57.06001,76.1899186 C51.8853567,78.6335413 46.1022551,80 40,80 C30.2969603,80 21.4008481,76.5451324 14.4746989,70.7984325 L43.7429985,48.1741345 L43.8997632,48.0643865 C44.222407,47.8605202 44.5973483,47.751248 44.9815965,47.751248 L44.9815965,47.751248 L45.2668354,47.7508861 Z M54.0364557,47.7508861 L79.2494757,47.7514942 C77.3179245,57.5879193 71.7808389,66.1315335 64.0713245,71.9492315 L54.0364557,47.7508861 Z M40,0 C62.09139,0 80,17.90861 80,40 L79.997,39.649 L50.6774684,39.6496203 L38.6939034,10.7508254 L38.6029526,10.5443792 C37.462887,8.10316512 34.5905672,6.97103568 32.0772939,8.01325131 C30.8923355,8.50463525 29.9380621,9.42747569 29.4072796,10.5953175 L29.4072796,10.5953175 L6.26764305,61.5064595 C2.29976115,55.2958712 0,47.9165046 0,40 C0,17.90861 17.90861,0 40,0 Z M33.8886076,20.3129114 L42.083038,40.0729114 L41.6708677,40.2064681 C40.6388318,40.5634951 39.6643759,41.0874888 38.7886066,41.7644146 L38.7886066,41.7644146 L16.2055696,59.2192405 L33.8886076,20.3129114 Z" id="path-1"></path>
    </defs>
    <g id="Logo" stroke="none" stroke-width="1" fill="none" fill-rule="evenodd">
        <g id="Artboard" transform="translate(-53.000000, -826.000000)">
            <g id="AlphaSeekLogo_Black_Transparant" transform="translate(53.000000, 826.300000)">
                <g id="AlphaLogo_White-Copy-3">
                    <circle id="Mask" cx="40" cy="40" r="40"></circle>
                    <mask id="mask-2" fill="white">
                        <use xlink:href="#path-1"></use>
                    </mask>
                    <use id="Combined-Shape" fill="#EB5C09" xlink:href="#path-1"></use>
                    <path d="M59.4451054,37.6275248 L45.5149763,37.6275248 C42.0651913,37.6275248 38.7032953,38.7156397 35.9077493,40.7370104 L35.9077493,40.7370104 L35.9077493,40.7370104" id="Line-3" stroke="#EB5C09" stroke-width="4" stroke-linecap="square"></path>
                    <line x1="74.3388425" y1="49.7764917" x2="44.98376" y2="49.7764917" id="Line-3-Copy" stroke="#EB5C09" stroke-width="4" stroke-linecap="round"></line>
                </g>
                <g id="Group-15-Copy-3" transform="translate(162.000000, 25.700000)">
                    <rect id="Rectangle" fill="#EB5C09" x="0" y="14" width="28" height="8" rx="4"></rect>
                    <rect id="Rectangle-Copy-6" fill="#000000" x="0" y="0" width="28" height="8" rx="4"></rect>
                    <rect id="Rectangle-Copy-7" fill="#000000" x="0" y="28" width="28" height="8" rx="4"></rect>
                </g>
                <g id="Group-15-Copy-4" transform="translate(126.000000, 25.700000)">
                    <rect id="Rectangle" fill="#EB5C09" x="0" y="14" width="28" height="8" rx="4"></rect>
                    <rect id="Rectangle-Copy-6" fill="#000000" x="0" y="0" width="28" height="8" rx="4"></rect>
                    <rect id="Rectangle-Copy-7" fill="#000000" x="0" y="28" width="28" height="8" rx="4"></rect>
                </g>
                <g id="Group-15" transform="translate(198.000000, 25.700000)" fill="#000000">
                    <path d="M-1.9474411,5.9474411 L5.36493683,5.9474411 L5.36493683,5.9474411 L13.9474411,13.9474411 L-1.9474411,13.9474411 C-4.1565801,13.9474411 -5.9474411,12.1565801 -5.9474411,9.9474411 C-5.9474411,7.7383021 -4.1565801,5.9474411 -1.9474411,5.9474411 Z" id="Rectangle-Copy-8" transform="translate(4.000000, 9.947441) rotate(90.000000) translate(-4.000000, -9.947441) "></path>
                    <path d="M15.7692788,24.7815885 L28.014164,24.7849791 C30.2234768,24.7855909 32.0141544,26.5767643 32.0141544,28.7860772 C32.0141544,30.9945619 30.2238238,32.7848924 28.0153391,32.7848924 C28.0149474,32.7848924 28.0145557,32.7848924 28.014164,32.7848923 L16.8935831,32.7816243 L16.8935831,32.7816243 L15.7692788,24.7815885 Z" id="Rectangle-Copy-10" transform="translate(23.891717, 28.783828) rotate(51.000000) translate(-23.891717, -28.783828) "></path>
                    <path d="M-3.56350031,17.567633 L26.8132162,17.567633 L26.8132162,17.567633 L29.0496979,15.4822118 C30.6654573,13.9757593 33.1965043,14.0641854 34.7031921,15.6797254 C36.2098212,17.2953874 36.1214327,19.8265044 34.5057707,21.3331336 L29.9566182,25.5752869 L29.9566182,25.5752869 L-3.56350039,25.568449 C-5.77232053,25.5671823 -7.56268424,23.7764533 -7.56350031,21.567633 C-7.56350031,19.358494 -5.77263931,17.567633 -3.56350031,17.567633 Z" id="Rectangle-Copy-9" transform="translate(14.933843, 19.164799) rotate(133.000000) translate(-14.933843, -19.164799) "></path>
                </g>
                <path d="M114,25.7 C116.209139,25.7 118,27.490861 118,29.7 C118,31.8421954 116.355447,33.7 114,33.7 C112.429702,33.7 107.429702,33.7 99,33.7 C97.1424572,33.7 96,35.2404334 96,36.761638 C96,38.2828426 97.3210146,39.7 99,39.7 C100.64891,39.7 103.315577,39.7 107,39.7 C113.156967,39.7 118,44.7399033 118,50.6532443 C118,56.5665852 113.334734,61.7 107,61.7 C103.131996,61.7 98.1319961,61.7 92,61.7 C89.790861,61.7 88,59.909139 88,57.7 C88,55.5578046 89.6861282,53.7 92,53.7 C94.3138718,53.7 105.105077,53.7 107,53.7 C108.894923,53.7 110,52.0942565 110,50.7 C110,49.3057435 108.894923,47.7 107,47.7 C105.736718,47.7 103.070051,47.7 99,47.7 C92.5739228,47.7 88,42.567689 88,36.761638 C88,30.955587 92.4844396,25.7 99,25.7 L114,25.7 Z" id="Path-2" fill="#000000" fill-rule="nonzero"></path>
            </g>
        </g>
    </g>
</svg>