<svg width="31" height="33" viewBox="0 0 31 33" fill="none" xmlns="http://www.w3.org/2000/svg">
<path d="M26.3825 4.31558C22.126 0.634896 17.861 -0.00514836 13.0071 1.23335C12.1266 1.45802 11.5787 2.33625 11.7673 3.22519L12.5594 6.95866C12.7499 7.85641 13.6217 8.43892 14.524 8.27085C17.3068 7.75249 19.1308 7.64581 21.2174 9.45006C22.8579 10.8687 23.9741 13.6792 22.5985 15.27C21.5585 16.4726 20.0317 16.2318 17.6265 15.7392C14.8217 15.1648 11.1822 14.3213 8.33113 17.6184L7.87978 18.1404C7.26856 18.8472 7.34607 19.9157 8.05291 20.5269L11.9176 23.8688C12.6244 24.48 13.6929 24.4025 14.3041 23.6956L14.5703 23.3878C16.5467 21.1022 23.3092 26.7835 28.6574 20.5985C32.6851 15.9408 30.9089 8.22968 26.3825 4.31558ZM8.62682 23.7688C6.58996 22.0075 3.49987 22.2317 1.73855 24.2685C-0.0227329 26.3053 0.201438 29.3954 2.23831 31.1568C4.27517 32.9181 7.36526 32.6939 9.12658 30.657C10.8879 28.6202 10.6637 25.5301 8.62682 23.7688Z" fill="white"/>
</svg>
