<svg width="23" height="22" viewBox="0 0 23 22" fill="none" xmlns="http://www.w3.org/2000/svg">
<path fill-rule="evenodd" clip-rule="evenodd" d="M14.6749 0.0540207C14.8721 -0.013626 15.0854 -0.0179922 15.2851 0.0415324C15.4849 0.101057 15.661 0.221497 15.7889 0.386021L22.7889 9.38602C22.9255 9.56156 22.9996 9.77762 22.9996 10C22.9996 10.2224 22.9255 10.4385 22.7889 10.614L15.7889 19.614C15.6609 19.7784 15.4848 19.8987 15.2852 19.9581C15.0855 20.0175 14.8723 20.0131 14.6753 19.9455C14.4783 19.8779 14.3073 19.7504 14.1862 19.5809C14.0651 19.4114 14 19.2083 13.9999 19V15.01C8.62093 15.122 6.03693 16.143 4.73893 17.253C3.50493 18.308 3.27893 19.549 3.04393 20.849L2.98293 21.184C2.93805 21.4237 2.80713 21.6388 2.61479 21.7887C2.42245 21.9386 2.18195 22.0131 1.93854 21.9981C1.69512 21.9831 1.46558 21.8797 1.29309 21.7073C1.1206 21.5349 1.01705 21.3054 1.00193 21.062C0.82993 18.314 1.08793 14.332 3.02893 11.001C4.91293 7.76802 8.30493 5.28202 13.9999 5.02202V1.00002C13.9999 0.791671 14.0649 0.588505 14.1859 0.418904C14.3069 0.249302 14.4779 0.121734 14.6749 0.0540207Z" fill="#1D1D1D"/>
</svg>
