<svg width="24" height="26" viewBox="0 0 24 26" fill="none" xmlns="http://www.w3.org/2000/svg">
<path d="M6 6.69531C2.07 6.69531 0 9.84477 0 12.9319C0 16.019 2.07 19.1684 6 19.1684C8.37 19.1684 10.26 17.4222 12 15.3641C13.74 17.4222 15.57 19.1684 18 19.1684C21.93 19.1684 24 16.019 24 12.9319C24 9.84477 21.93 6.69531 18 6.69531C15.57 6.69531 13.74 8.44155 12 10.4996C10.26 8.44155 8.37 6.69531 6 6.69531ZM6 9.81359C7.26 9.81359 8.64 11.2792 10.02 12.9319C8.64 14.5846 7.26 16.0502 6 16.0502C3.78 16.0502 3 14.3663 3 12.9319C3 11.4975 3.78 9.81359 6 9.81359ZM18 9.81359C20.22 9.81359 21 11.4975 21 12.9319C21 14.3663 20.22 16.0502 18 16.0502C16.71 16.0502 15.33 14.5846 13.98 12.9319C15.36 11.2792 16.71 9.81359 18 9.81359Z" fill="#1D1D1D"/>
</svg>
