<svg width="23" height="24" viewBox="0 0 23 24" fill="none" xmlns="http://www.w3.org/2000/svg">
<path d="M23.2869 4.90344L12.487 0.103504C12.3335 0.0352612 12.1673 0 11.9992 0C11.8312 0 11.665 0.0352612 11.5115 0.103504L0.711591 4.90344C0.687591 4.91424 0.670791 4.93224 0.646792 4.94544C0.613192 4.96224 0.577193 4.97304 0.545993 4.99344C0.519593 5.01144 0.499194 5.03424 0.473994 5.05344C0.386279 5.11863 0.309343 5.19718 0.245997 5.28624C0.221997 5.31984 0.196797 5.34984 0.175198 5.38344C0.139482 5.44686 0.108982 5.51307 0.0839988 5.58143C0.073199 5.61383 0.0563993 5.64383 0.0467994 5.67623C0.0166624 5.78163 0.000919844 5.89061 0 6.00023V18.0001C0 18.4753 0.278397 18.9037 0.712791 19.0969L11.5127 23.8968C11.6687 23.9664 11.8342 24 11.9998 24C12.1669 23.9957 12.3313 23.9565 12.4822 23.8848L12.487 23.8968L23.2869 19.0969C23.4992 19.0027 23.6795 18.849 23.8061 18.6543C23.9326 18.4596 23.9999 18.2323 23.9997 18.0001V6.00023C23.9999 5.76802 23.9326 5.54076 23.8061 5.34605C23.6795 5.15135 23.4992 4.99758 23.2869 4.90344ZM11.9998 2.51427L19.8453 6.00023L11.9998 9.48618L10.4303 8.78899L4.15555 6.00023L11.9998 2.51427ZM13.1998 20.9532V11.5802L21.5997 7.847V17.2213L13.1998 20.9532Z" fill="#1D1D1D"/>
</svg>
