<svg width="24" height="24" viewBox="0 0 24 24" fill="none" xmlns="http://www.w3.org/2000/svg">
<path d="M18.4601 0.924711C18.4604 0.741907 18.4064 0.563122 18.305 0.411022C18.2036 0.258922 18.0593 0.140357 17.8905 0.0703564C17.7216 0.000356225 17.5358 -0.017926 17.3565 0.0178273C17.1772 0.0535807 17.0126 0.14176 16.8835 0.271185L13.1913 3.96342C13.1056 4.0493 13.0378 4.15122 12.9915 4.26336C12.9453 4.37549 12.9216 4.49565 12.9218 4.61695V9.77315L11.5538 11.1393C11.2802 11.0667 10.9935 11.0578 10.7159 11.1135C10.4383 11.1691 10.1771 11.2877 9.95261 11.4602C9.72807 11.6326 9.54612 11.8544 9.42076 12.1082C9.29541 12.3621 9.23001 12.6413 9.22959 12.9245C9.22971 13.1872 9.28591 13.4469 9.39442 13.6861C9.50294 13.9254 9.66127 14.1388 9.85885 14.3119C10.0564 14.4851 10.2887 14.6141 10.5401 14.6903C10.7915 14.7666 11.0563 14.7882 11.3168 14.7539C11.5773 14.7196 11.8274 14.6301 12.0505 14.4914C12.2736 14.3526 12.4646 14.1679 12.6106 13.9494C12.7565 13.731 12.8542 13.4839 12.8971 13.2247C12.9399 12.9655 12.9269 12.7001 12.859 12.4463L14.227 11.0784H19.3831C19.5044 11.0786 19.6246 11.0549 19.7367 11.0086C19.8488 10.9624 19.9507 10.8945 20.0366 10.8088L23.7288 7.11659C23.8582 6.98749 23.9464 6.82287 23.9822 6.6436C24.0179 6.46432 23.9996 6.27847 23.9296 6.1096C23.8596 5.94073 23.7411 5.79645 23.589 5.69504C23.4369 5.59364 23.2581 5.53968 23.0753 5.54H18.4601V0.924711ZM22.0489 11.407C22.3665 13.7057 21.9542 16.0461 20.8702 18.0979C19.7861 20.1497 18.085 21.8092 16.007 22.8421C13.929 23.8751 11.5791 24.2293 9.28901 23.8548C6.99888 23.4803 4.88421 22.396 3.2435 20.7549C1.60279 19.1139 0.518905 16.999 0.144855 14.7087C-0.229194 12.4185 0.125482 10.0686 1.15882 7.99085C2.19215 5.91305 3.85195 4.21226 5.90392 3.12857C7.95589 2.04489 10.2964 1.63303 12.595 1.95115L11.888 2.65821C11.6305 2.91533 11.4263 3.22066 11.2869 3.55675C11.1475 3.89284 11.0758 4.2531 11.0757 4.61695C9.43263 4.61695 7.82647 5.10417 6.46032 6.01702C5.09418 6.92986 4.02939 8.22732 3.40062 9.74532C2.77185 11.2633 2.60734 12.9337 2.92788 14.5452C3.24843 16.1567 4.03963 17.637 5.20145 18.7988C6.36326 19.9606 7.8435 20.7518 9.45499 21.0724C11.0665 21.3929 12.7368 21.2284 14.2548 20.5996C15.7728 19.9709 17.0702 18.9061 17.9831 17.5399C18.8959 16.1737 19.3831 14.5675 19.3831 12.9245C20.1173 12.9238 20.8212 12.6317 21.34 12.1122L22.0489 11.407ZM11.0757 6.46306C9.79775 6.46306 8.54852 6.84202 7.48596 7.55201C6.4234 8.262 5.59524 9.27113 5.10619 10.4518C4.61715 11.6325 4.48919 12.9316 4.73851 14.185C4.98782 15.4384 5.6032 16.5897 6.50683 17.4934C7.41047 18.397 8.56177 19.0124 9.81514 19.2617C11.0685 19.511 12.3677 19.3831 13.5483 18.894C14.729 18.405 15.7381 17.5768 16.4481 16.5142C17.1581 15.4517 17.537 14.2024 17.537 12.9245H14.9913L14.7605 13.1552C14.7161 13.8645 14.468 14.5458 14.046 15.1175C13.6239 15.6892 13.0459 16.127 12.3812 16.3783C11.7165 16.6296 10.9934 16.6838 10.2987 16.5342C9.60401 16.3847 8.96721 16.0379 8.46474 15.5355C7.96226 15.033 7.61546 14.3962 7.46596 13.7015C7.31645 13.0067 7.3706 12.2837 7.62189 11.619C7.87319 10.9543 8.31095 10.3762 8.88266 9.95415C9.45436 9.5321 10.1357 9.284 10.8449 9.23962L11.0757 9.00886V6.46306Z" fill="#1D1D11"/>
</svg>
