<svg width="24" height="14" viewBox="0 0 24 14" fill="none" xmlns="http://www.w3.org/2000/svg">
<path d="M6 0.695312C2.07 0.695312 0 3.84477 0 6.93187C0 10.019 2.07 13.1684 6 13.1684C8.37 13.1684 10.26 11.4222 12 9.36413C13.74 11.4222 15.57 13.1684 18 13.1684C21.93 13.1684 24 10.019 24 6.93187C24 3.84477 21.93 0.695312 18 0.695312C15.57 0.695312 13.74 2.44155 12 4.49961C10.26 2.44155 8.37 0.695312 6 0.695312ZM6 3.81359C7.26 3.81359 8.64 5.27918 10.02 6.93187C8.64 8.58456 7.26 10.0502 6 10.0502C3.78 10.0502 3 8.36628 3 6.93187C3 5.49746 3.78 3.81359 6 3.81359ZM18 3.81359C20.22 3.81359 21 5.49746 21 6.93187C21 8.36628 20.22 10.0502 18 10.0502C16.71 10.0502 15.33 8.58456 13.98 6.93187C15.36 5.27918 16.71 3.81359 18 3.81359Z" fill="#1D1D1D"/>
</svg>
