<svg width="24" height="24" viewBox="0 0 24 24" fill="none" xmlns="http://www.w3.org/2000/svg">
<path d="M17.6 6.76364V6C17.6 2.57727 13.82 0 8.8 0C3.78 0 0 2.57727 0 6V11.4545C0 14.3045 2.62 16.5682 6.4 17.25V18C6.4 21.4227 10.18 24 15.2 24C20.22 24 24 21.4227 24 18V12.5455C24 9.72273 21.46 7.45909 17.6 6.76364ZM6.4 15.0273V11.7955C7.19587 11.9349 7.99758 12.0033 8.8 12C9.60241 12.0033 10.4041 11.9349 11.2 11.7955V15.0273C10.4061 15.196 9.60351 15.2781 8.8 15.2727C7.99649 15.2781 7.19394 15.196 6.4 15.0273ZM16 9.53182V11.4545C16 12.6 14.76 13.8273 12.8 14.5773V11.3864C14.09 10.9636 15.18 10.3227 16 9.53182ZM1.6 11.4545V9.53182C2.42 10.3227 3.51 10.9636 4.8 11.3864V14.5773C2.84 13.8273 1.6 12.6 1.6 11.4545ZM8 18V17.4273L8.8 17.4545C9.19333 17.4545 9.57333 17.4409 9.94 17.4136C10.34 17.6045 10.76 17.7682 11.2 17.9182V21.1227C9.24 20.3727 8 19.1455 8 18ZM12.8 21.5727V18.3273C13.5958 18.4696 14.3974 18.5425 15.2 18.5455C16.0024 18.5487 16.8041 18.4804 17.6 18.3409V21.5727C16.009 21.9 14.391 21.9 12.8 21.5727ZM19.2 21.1227V17.9318C20.49 17.5091 21.58 16.8682 22.4 16.0773V18C22.4 19.1455 21.16 20.3727 19.2 21.1227Z" fill="#1D1D1D"/>
</svg>
